<?xml version="1.0" standalone="no"?>
<!DOCTYPE svg PUBLIC "-//W3C//DTD SVG 20010904//EN"
 "http://www.w3.org/TR/2001/REC-SVG-20010904/DTD/svg10.dtd">
<svg version="1.0" xmlns="http://www.w3.org/2000/svg"
 width="4588.000000pt" height="4528.000000pt" viewBox="0 0 4588.000000 4528.000000"
 preserveAspectRatio="xMidYMid meet">

<g transform="translate(0.000000,4528.000000) scale(0.100000,-0.100000)"
fill="#000000" stroke="none">
<path d="M19210 38270 c-124 -4 -270 -11 -325 -14 -114 -8 -86 5 -445 -204
-2246 -1307 -4438 -3251 -6326 -5612 -397 -496 -802 -1039 -1148 -1540 -102
-147 -116 -163 -284 -314 -1536 -1378 -2752 -2950 -3666 -4738 -1435 -2806
-2015 -6008 -1660 -9168 97 -867 271 -1755 506 -2585 85 -303 154 -524 184
-591 14 -32 94 -162 178 -290 666 -1007 1435 -1932 2292 -2754 l234 -226 129
-219 c112 -192 290 -486 326 -538 11 -15 34 15 187 245 97 145 379 576 628
958 2803 4302 4195 6480 4527 7085 275 500 545 1153 762 1845 275 876 483
1777 746 3220 52 289 111 588 130 665 156 634 503 1440 970 2255 62 109 286
474 497 812 211 337 890 1421 1508 2408 1266 2023 1504 2405 1573 2522 26 46
71 112 100 148 104 128 183 157 252 90 55 -53 69 -140 41 -248 -9 -33 -264
-500 -699 -1280 -376 -675 -1085 -1945 -1574 -2822 -490 -877 -909 -1632 -932
-1677 -149 -297 -211 -585 -152 -700 26 -52 71 -84 126 -91 116 -13 289 135
457 389 31 46 444 746 918 1554 2118 3612 2448 4170 2490 4223 57 70 106 110
147 118 27 5 37 1 64 -25 31 -31 32 -34 26 -99 -3 -37 -18 -101 -33 -142 -25
-69 -381 -734 -1442 -2690 -628 -1159 -1233 -2265 -1445 -2644 -245 -437 -354
-652 -402 -796 -34 -102 -39 -128 -42 -235 -4 -110 -3 -124 19 -165 21 -41 27
-45 64 -48 166 -12 398 215 644 633 398 674 2017 3325 3194 5230 133 214 179
279 245 337 81 71 135 84 178 42 23 -23 25 -31 21 -88 -10 -116 190 244 -2312
-4156 -517 -910 -974 -1720 -1014 -1800 -170 -339 -193 -577 -62 -645 132 -69
344 79 574 398 63 88 121 186 2100 3502 1394 2336 1341 2252 1451 2305 68 33
148 25 187 -19 31 -35 36 -78 17 -159 -15 -61 -86 -212 -148 -316 -27 -44
-702 -1314 -1501 -2821 -799 -1507 -1495 -2816 -1548 -2910 -288 -512 -620
-1016 -932 -1418 -339 -436 -574 -676 -1085 -1108 -423 -357 -749 -639 -1005
-868 -1258 -1129 -2145 -2128 -2687 -3027 -346 -573 -1417 -2634 -3648 -7024
-467 -919 -1185 -2349 -1185 -2361 0 -6 57 -81 127 -167 1373 -1697 3021
-3083 4918 -4139 392 -218 1009 -524 1405 -696 167 -73 317 -123 575 -192
1030 -277 2061 -445 3205 -521 318 -21 1312 -30 1662 -15 2996 131 5826 1051
8288 2694 1402 936 2627 2066 3784 3490 199 245 498 630 642 827 l108 147 175
94 c1408 758 2673 1621 3756 2562 134 117 176 159 197 200 62 120 301 805 427
1222 387 1286 616 2588 706 4005 54 856 53 1849 -1 2740 -9 140 -16 264 -16
275 0 11 32 142 70 290 374 1430 642 2898 777 4245 37 376 48 312 -95 550
-693 1153 -1593 2321 -2676 3472 l-214 226 -79 184 c-352 815 -792 1697 -1224
2453 -138 242 -379 645 -386 645 -3 0 -36 -46 -72 -103 -187 -288 -625 -954
-681 -1037 -91 -133 -671 -1030 -1005 -1555 -1213 -1906 -2126 -3442 -2850
-4795 -314 -586 -327 -621 -327 -840 0 -162 21 -257 89 -395 44 -89 70 -126
232 -329 300 -376 481 -843 534 -1379 17 -174 6 -601 -20 -794 -92 -672 -327
-1377 -730 -2183 -1142 -2283 -3394 -4845 -5174 -5884 -293 -171 -556 -293
-822 -382 -236 -78 -373 -104 -585 -111 -205 -6 -303 7 -456 62 -142 50 -242
114 -354 225 -284 281 -441 722 -491 1380 -15 198 -6 723 16 960 188 2031
1125 4695 2328 6620 374 599 725 1054 1122 1459 423 431 768 689 1197 896 528
254 1042 330 1593 236 167 -29 241 -34 348 -22 209 24 385 106 522 246 73 74
101 116 336 510 747 1253 1498 2598 2401 4305 385 727 1043 1992 1230 2365 36
72 244 482 463 913 219 432 395 789 391 797 -8 21 -133 195 -346 480 -1136
1522 -2446 2805 -3808 3730 -93 62 -179 116 -193 119 -13 3 -71 8 -129 11
-1631 81 -3470 -68 -5385 -436 -257 -50 -790 -161 -944 -198 l-81 -19 -192 54
c-1844 523 -3562 748 -5278 694z"/>
<path d="M5400 8588 c-41 -5 -119 -24 -173 -42 -295 -101 -518 -346 -594 -653
-25 -102 -23 -333 5 -435 140 -518 671 -805 1177 -637 293 98 514 336 591 637
52 201 28 446 -61 623 -103 203 -235 333 -438 429 -96 46 -170 67 -287 80 -97
11 -116 11 -220 -2z"/>
</g>
</svg>
